<?xml version="1.0" encoding="UTF-8"?>
<svg width="15" height="15" viewBox="0 0 15 15" fill="none" xmlns="http://www.w3.org/2000/svg">
  <path d="M3.89081 1.81108C3.50029 1.42056 2.86713 1.42056 2.4766 1.81108C2.08608 2.20161 2.08608 2.83477 2.4766 3.2253L6.58333 7.5L2.47666 11.7747C2.08614 12.1652 2.08614 12.7984 2.47666 13.1889C2.86719 13.5794 3.50035 13.5794 3.89088 13.1889L7.5 9.4142L11.1092 13.1889C11.4997 13.5794 12.1329 13.5794 12.5234 13.1889C12.9139 12.7984 12.9139 12.1652 12.5234 11.7747L8.41667 7.5L12.5235 3.2253C12.914 2.83477 12.914 2.20161 12.5235 1.81108C12.133 1.42056 11.4998 1.42056 11.1093 1.81108L7.5 5.5858L3.89081 1.81108Z" fill="#37352F"/>
</svg> 