<svg width="65" height="65" viewBox="0 0 65 65" fill="none" xmlns="http://www.w3.org/2000/svg">
  <g clip-path="url(#clip0_274_21276)">
    <path d="M56.2434 11.3377C55.8836 10.8244 55.2741 10.5932 54.6776 10.6818C54.6549 10.6764 54.6322 10.6666 54.6095 10.6634L30.1828 7.07802C29.9159 7.03803 29.6436 7.06721 29.3897 7.16014L9.82565 14.3309C9.81701 14.3342 9.80944 14.3396 9.8008 14.3428C9.78027 14.3515 9.76082 14.3644 9.7392 14.372C9.63223 14.4195 9.53281 14.4757 9.44096 14.5416C9.41287 14.5622 9.38585 14.5827 9.35776 14.6054C9.25726 14.6875 9.16541 14.7772 9.08869 14.8799C9.08437 14.8863 9.07788 14.8896 9.07356 14.8961L0.812465 26.1969C0.495853 26.6302 0.413728 27.1942 0.594187 27.7C0.774645 28.2068 1.19499 28.5893 1.71584 28.7233L8.88446 30.5743V48.2971C8.88446 49.0092 9.35019 49.6391 10.032 49.8477L36.2795 57.8678C36.2882 57.8721 36.2979 57.8689 36.3065 57.8732C36.447 57.9121 36.594 57.937 36.7409 57.9381C36.7442 57.9381 36.7485 57.9402 36.7528 57.9402C36.9074 57.9402 37.0597 57.9121 37.211 57.8678C37.2585 57.8527 37.3028 57.8322 37.3515 57.8116C37.4152 57.7879 37.4779 57.7706 37.5406 57.7382L56.3752 47.2856C56.8907 46.9993 57.2094 46.4568 57.2094 45.8679V28.1484L63.5806 25.0903C64.0096 24.885 64.3262 24.4993 64.4472 24.0389C64.5672 23.5775 64.4796 23.088 64.2062 22.6979L56.2434 11.3377ZM30.1191 10.3457L49.185 13.1444L36.5378 19.025L16.5102 15.3348L30.1191 10.3457ZM11.091 17.6321L34.0395 21.8615L27.2944 31.9802L4.83982 26.1828L11.091 17.6321ZM12.1262 47.0976V31.4107L27.5981 35.4056C27.7332 35.4391 27.8682 35.4575 28.0033 35.4575C28.536 35.4575 29.0461 35.1938 29.3519 34.7357L35.1319 26.0661V54.1268L12.1262 47.0976ZM53.9666 44.9126L38.3726 53.5649V27.9625L41.22 34.0128C41.4048 34.4029 41.7376 34.7054 42.1428 34.8481C42.3189 34.9129 42.5026 34.9421 42.6853 34.9421C42.9262 34.9421 43.165 34.888 43.3866 34.7843L53.9644 29.7077L53.9666 44.9126ZM43.459 31.1546L38.9129 21.4963L54.3675 14.3104L60.4555 22.9951L43.459 31.1546Z" fill="black"/>
  </g>
  <defs>
    <clipPath id="clip0_274_21276">
      <rect width="64" height="64" fill="white" transform="translate(0.5 0.5)"/>
    </clipPath>
  </defs>
</svg>
