<svg width="16" height="17" viewBox="0 0 16 17" fill="none" xmlns="http://www.w3.org/2000/svg">
  <g clip-path="url(#clip0_274_21563)">
    <path d="M11.8821 3.92951L12.5246 3.16376C11.9039 2.63839 11.1963 2.22539 10.4336 1.94336L10.0918 2.88216C10.745 3.12445 11.3508 3.47888 11.8821 3.92951Z" fill="#9A9996"/>
    <path d="M13.9057 7.50059L14.8896 7.29419C14.7513 6.49527 14.4741 5.72675 14.0707 5.02344L13.2051 5.50059C13.5506 6.12259 13.7875 6.79895 13.9057 7.50059Z" fill="#9A9996"/>
    <path d="M10.0918 14.1177L10.4336 15.0565C11.1963 14.7744 11.9039 14.3614 12.5246 13.8361L11.8821 13.0703C11.3508 13.5209 10.745 13.8754 10.0918 14.1177Z" fill="#9A9996"/>
    <path d="M13.2051 11.5003L14.0707 12.0003C14.4744 11.2889 14.7515 10.5128 14.8898 9.70665L13.9057 9.5332C13.7874 10.2244 13.5504 10.8899 13.2051 11.5003Z" fill="#9A9996"/>
    <path d="M8 15.5V1.5C6.14348 1.5 4.36301 2.2375 3.05025 3.55025C1.7375 4.86301 1 6.64348 1 8.5C1 10.3565 1.7375 12.137 3.05025 13.4497C4.36301 14.7625 6.14348 15.5 8 15.5Z" fill="#9A9996"/>
  </g>
  <defs>
    <clipPath id="clip0_274_21563">
      <rect width="16" height="16" fill="white" transform="translate(0 0.5)"/>
    </clipPath>
  </defs>
</svg>
