<svg width="14" height="14" viewBox="0 0 14 14" fill="none" xmlns="http://www.w3.org/2000/svg">
<path fill-rule="evenodd" clip-rule="evenodd" d="M13.6673 7.00065C13.6673 10.6825 10.6825 13.6673 7.00065 13.6673C3.31875 13.6673 0.333984 10.6825 0.333984 7.00065C0.333984 3.31875 3.31875 0.333984 7.00065 0.333984C10.6825 0.333984 13.6673 3.31875 13.6673 7.00065ZM9.68752 4.98043C9.88278 5.17569 9.88278 5.49228 9.68752 5.68752L6.35418 9.02085C6.15892 9.21612 5.84238 9.21612 5.6471 9.02085L4.31376 7.68752C4.1185 7.49225 4.1185 7.17572 4.31376 6.98045C4.50902 6.78518 4.82561 6.78518 5.02087 6.98045L6.00065 7.96018L7.49052 6.47032L8.98045 4.98043C9.17572 4.78517 9.49225 4.78517 9.68752 4.98043Z" fill="#1785ff"/>
</svg>
