<?xml version="1.0" encoding="utf-8"?><!-- Uploaded to: SVG Repo, www.svgrepo.com, Generator: SVG Repo Mixer Tools -->
<svg width="20" height="20" viewBox="0 0 20 20" fill="none" xmlns="http://www.w3.org/2000/svg">
<path d="M7.08297 5.83C8.00252 5.83 8.74797 5.08455 8.74797 4.165C8.74797 3.24545 8.00252 2.5 7.08297 2.5C6.16341 2.5 5.41797 3.24545 5.41797 4.165C5.41797 5.08455 6.16341 5.83 7.08297 5.83Z" fill="#9A9996"/>
<path d="M12.915 5.83C13.8346 5.83 14.58 5.08455 14.58 4.165C14.58 3.24545 13.8346 2.5 12.915 2.5C11.9954 2.5 11.25 3.24545 11.25 4.165C11.25 5.08455 11.9954 5.83 12.915 5.83Z" fill="#9A9996"/>
<path d="M8.74797 9.99898C8.74797 10.9186 8.00252 11.664 7.08297 11.664C6.16341 11.664 5.41797 10.9186 5.41797 9.99898C5.41797 9.0794 6.16341 8.33398 7.08297 8.33398C8.00252 8.33398 8.74797 9.0794 8.74797 9.99898Z" fill="#9A9996"/>
<path d="M12.915 11.663C13.8346 11.663 14.58 10.9176 14.58 9.99801C14.58 9.07843 13.8346 8.33301 12.915 8.33301C11.9954 8.33301 11.25 9.07843 11.25 9.99801C11.25 10.9176 11.9954 11.663 12.915 11.663Z" fill="#9A9996"/>
<path d="M8.74797 15.831C8.74797 16.7506 8.00252 17.496 7.08297 17.496C6.16341 17.496 5.41797 16.7506 5.41797 15.831C5.41797 14.9114 6.16341 14.166 7.08297 14.166C8.00252 14.166 8.74797 14.9114 8.74797 15.831Z" fill="#9A9996"/>
<path d="M12.915 17.497C13.8346 17.497 14.58 16.7516 14.58 15.832C14.58 14.9124 13.8346 14.167 12.915 14.167C11.9954 14.167 11.25 14.9124 11.25 15.832C11.25 16.7516 11.9954 17.497 12.915 17.497Z" fill="#9A9996"/>
</svg>